<svg xmlns="http://www.w3.org/2000/svg" viewBox="0 0 80 80"><circle cx="40" cy="40" r="38" fill="#222"/><path d="M40 18c-12.4 0-22.5 10.1-22.5 22.5 0 9.9 6.4 18.3 15.3 21.3 1.1.2 1.5-.5 1.5-1.1v-4.1c-6.2 1.3-7.5-2.6-7.5-2.6-1-2.6-2.5-3.3-2.5-3.3-2-1.4.2-1.4.2-1.4 2.3.2 3.5 2.4 3.5 2.4 2 3.5 5.3 2.5 6.6 1.9.2-1.5.8-2.5 1.4-3.1-5-.6-10.2-2.5-10.2-11 0-2.4.9-4.4 2.3-6-.2-.6-1-3 .2-6.2 0 0 1.9-.6 6.2 2.3 1.8-.5 3.7-.8 5.6-.8s3.8.3 5.6.8c4.3-2.9 6.2-2.3 6.2-2.3 1.2 3.2.4 5.6.2 6.2 1.4 1.6 2.3 3.6 2.3 6 0 8.6-5.2 10.4-10.2 11 .8.7 1.5 2.1 1.5 4.2v6c0 .6.4 1.3 1.5 1.1 8.9-3 15.3-11.4 15.3-21.3C62.5 28.1 52.4 18 40 18z" fill="white"/></svg>
