<svg xmlns="http://www.w3.org/2000/svg" viewBox="0 0 480 300"><rect width="480" height="300" fill="#f7fafc"/><rect x="34" y="42" width="150" height="216" rx="10" fill="#fff" stroke="#cbd5e1" stroke-width="4"/><path d="M58 116h28l12-44 22 124 19-88 18 42h55" fill="none" stroke="#d33" stroke-width="7" stroke-linecap="round" stroke-linejoin="round"/><path d="M58 178h98M58 204h78M58 230h112" stroke="#94a3b8" stroke-width="5" stroke-linecap="round"/><rect x="250" y="52" width="154" height="154" rx="14" fill="#e0f2fe" stroke="#38bdf8" stroke-width="5"/><path d="M274 86h106M274 118h106M274 150h106M274 182h106M294 72v122M326 72v122M358 72v122" stroke="#7dd3fc" stroke-width="3"/><path d="M275 181c20-45 40-73 68-52 21 16 38 5 58-35" fill="none" stroke="#0f766e" stroke-width="7" stroke-linecap="round"/><circle cx="332" cy="129" r="18" fill="#0f766e" opacity=".16"/><text x="327" y="244" text-anchor="middle" font-family="Arial, sans-serif" font-size="25" font-weight="700" fill="#164e63">federated nnU-Net</text><text x="327" y="270" text-anchor="middle" font-family="Arial, sans-serif" font-size="17" fill="#475569">ECG page digitization</text></svg>
